<svg width="257" height="186" viewBox="0 0 257 186" fill="none" xmlns="http://www.w3.org/2000/svg">
<g opacity="0.15" filter="url(#filter0_f_201_3)">
<ellipse cx="128.5" cy="142.5" rx="104.5" ry="19.5" fill="#C6C7D2"/>
</g>
<g filter="url(#filter1_bi_201_3)">
<mask id="path-2-inside-1_201_3" fill="white">
<path fill-rule="evenodd" clip-rule="evenodd" d="M65 134.87C63.8446 134.956 62.6774 135 61.5 135C35.8188 135 15 114.181 15 88.5C15 62.8188 35.8188 42 61.5 42C62.6724 42 63.8347 42.0434 64.9853 42.1286C74.0811 17.5332 97.743 0 125.5 0C156.93 0 183.109 22.4799 188.836 52.2382C192.091 51.4293 195.495 51 199 51C222.196 51 241 69.804 241 93C241 116.196 222.196 135 199 135C197.651 135 196.317 134.936 195 134.812V135H65V134.87Z"/>
</mask>
<path fill-rule="evenodd" clip-rule="evenodd" d="M65 134.87C63.8446 134.956 62.6774 135 61.5 135C35.8188 135 15 114.181 15 88.5C15 62.8188 35.8188 42 61.5 42C62.6724 42 63.8347 42.0434 64.9853 42.1286C74.0811 17.5332 97.743 0 125.5 0C156.93 0 183.109 22.4799 188.836 52.2382C192.091 51.4293 195.495 51 199 51C222.196 51 241 69.804 241 93C241 116.196 222.196 135 199 135C197.651 135 196.317 134.936 195 134.812V135H65V134.87Z" fill="url(#paint0_linear_201_3)" fill-opacity="0.5"/>
<path d="M65 134.87H67V132.716L64.8516 132.876L65 134.87ZM64.9853 42.1286L64.8375 44.1232L66.3389 44.2344L66.8611 42.8224L64.9853 42.1286ZM188.836 52.2382L186.872 52.6162L187.271 54.6881L189.318 54.1792L188.836 52.2382ZM195 134.812L195.188 132.821L193 132.614V134.812H195ZM195 135V137H197V135H195ZM65 135H63V137H65V135ZM64.8516 132.876C63.7455 132.958 62.6278 133 61.5 133V137C62.727 137 63.9437 136.954 65.1484 136.865L64.8516 132.876ZM61.5 133C36.9233 133 17 113.077 17 88.5H13C13 115.286 34.7142 137 61.5 137V133ZM17 88.5C17 63.9233 36.9233 44 61.5 44V40C34.7142 40 13 61.7142 13 88.5H17ZM61.5 44C62.623 44 63.736 44.0416 64.8375 44.1232L65.1331 40.1341C63.9333 40.0452 62.7218 40 61.5 40V44ZM66.8611 42.8224C75.676 18.9865 98.6068 2 125.5 2V-2C96.8792 -2 72.4862 16.0799 63.1094 41.4349L66.8611 42.8224ZM125.5 2C155.953 2 181.323 23.7817 186.872 52.6162L190.8 51.8602C184.895 21.1781 157.906 -2 125.5 -2V2ZM189.318 54.1792C192.416 53.4092 195.659 53 199 53V49C195.331 49 191.765 49.4495 188.354 50.2973L189.318 54.1792ZM199 53C221.091 53 239 70.9086 239 93H243C243 68.6995 223.301 49 199 49V53ZM239 93C239 115.091 221.091 133 199 133V137C223.301 137 243 117.301 243 93H239ZM199 133C197.714 133 196.442 132.939 195.188 132.821L194.812 136.803C196.191 136.933 197.588 137 199 137V133ZM193 134.812V135H197V134.812H193ZM195 133H65V137H195V133ZM67 135V134.87H63V135H67Z" fill="white" fill-opacity="0.1" style="mix-blend-mode:overlay" mask="url(#path-2-inside-1_201_3)"/>
</g>
<g filter="url(#filter2_d_201_3)">
<path d="M150 82H158V115C158 117.209 156.209 119 154 119V119C151.791 119 150 117.209 150 115V82Z" fill="url(#paint1_linear_201_3)" shape-rendering="crispEdges"/>
</g>
<g filter="url(#filter3_d_201_3)">
<path d="M198 91H206V124C206 126.209 204.209 128 202 128V128C199.791 128 198 126.209 198 124V91Z" fill="url(#paint2_linear_201_3)" shape-rendering="crispEdges"/>
</g>
<g filter="url(#filter4_d_201_3)">
<path d="M175 102H183V147C183 149.209 181.209 151 179 151V151C176.791 151 175 149.209 175 147V102Z" fill="url(#paint3_linear_201_3)" shape-rendering="crispEdges"/>
</g>
<defs>
<filter id="filter0_f_201_3" x="0" y="99" width="257" height="87" filterUnits="userSpaceOnUse" color-interpolation-filters="sRGB">
<feFlood flood-opacity="0" result="BackgroundImageFix"/>
<feBlend mode="normal" in="SourceGraphic" in2="BackgroundImageFix" result="shape"/>
<feGaussianBlur stdDeviation="12" result="effect1_foregroundBlur_201_3"/>
</filter>
<filter id="filter1_bi_201_3" x="-1" y="-16" width="258" height="167" filterUnits="userSpaceOnUse" color-interpolation-filters="sRGB">
<feFlood flood-opacity="0" result="BackgroundImageFix"/>
<feGaussianBlur in="BackgroundImageFix" stdDeviation="8"/>
<feComposite in2="SourceAlpha" operator="in" result="effect1_backgroundBlur_201_3"/>
<feBlend mode="normal" in="SourceGraphic" in2="effect1_backgroundBlur_201_3" result="shape"/>
<feColorMatrix in="SourceAlpha" type="matrix" values="0 0 0 0 0 0 0 0 0 0 0 0 0 0 0 0 0 0 127 0" result="hardAlpha"/>
<feOffset dy="4"/>
<feGaussianBlur stdDeviation="9"/>
<feComposite in2="hardAlpha" operator="arithmetic" k2="-1" k3="1"/>
<feColorMatrix type="matrix" values="0 0 0 0 1 0 0 0 0 1 0 0 0 0 1 0 0 0 1 0"/>
<feBlend mode="normal" in2="shape" result="effect2_innerShadow_201_3"/>
</filter>
<filter id="filter2_d_201_3" x="130" y="66" width="48" height="77" filterUnits="userSpaceOnUse" color-interpolation-filters="sRGB">
<feFlood flood-opacity="0" result="BackgroundImageFix"/>
<feColorMatrix in="SourceAlpha" type="matrix" values="0 0 0 0 0 0 0 0 0 0 0 0 0 0 0 0 0 0 127 0" result="hardAlpha"/>
<feOffset dy="4"/>
<feGaussianBlur stdDeviation="10"/>
<feComposite in2="hardAlpha" operator="out"/>
<feColorMatrix type="matrix" values="0 0 0 0 0.780392 0 0 0 0 0.784314 0 0 0 0 0.827451 0 0 0 1 0"/>
<feBlend mode="normal" in2="BackgroundImageFix" result="effect1_dropShadow_201_3"/>
<feBlend mode="normal" in="SourceGraphic" in2="effect1_dropShadow_201_3" result="shape"/>
</filter>
<filter id="filter3_d_201_3" x="178" y="75" width="48" height="77" filterUnits="userSpaceOnUse" color-interpolation-filters="sRGB">
<feFlood flood-opacity="0" result="BackgroundImageFix"/>
<feColorMatrix in="SourceAlpha" type="matrix" values="0 0 0 0 0 0 0 0 0 0 0 0 0 0 0 0 0 0 127 0" result="hardAlpha"/>
<feOffset dy="4"/>
<feGaussianBlur stdDeviation="10"/>
<feComposite in2="hardAlpha" operator="out"/>
<feColorMatrix type="matrix" values="0 0 0 0 0.780392 0 0 0 0 0.784314 0 0 0 0 0.827451 0 0 0 1 0"/>
<feBlend mode="normal" in2="BackgroundImageFix" result="effect1_dropShadow_201_3"/>
<feBlend mode="normal" in="SourceGraphic" in2="effect1_dropShadow_201_3" result="shape"/>
</filter>
<filter id="filter4_d_201_3" x="155" y="86" width="48" height="89" filterUnits="userSpaceOnUse" color-interpolation-filters="sRGB">
<feFlood flood-opacity="0" result="BackgroundImageFix"/>
<feColorMatrix in="SourceAlpha" type="matrix" values="0 0 0 0 0 0 0 0 0 0 0 0 0 0 0 0 0 0 127 0" result="hardAlpha"/>
<feOffset dy="4"/>
<feGaussianBlur stdDeviation="10"/>
<feComposite in2="hardAlpha" operator="out"/>
<feColorMatrix type="matrix" values="0 0 0 0 0.780392 0 0 0 0 0.784314 0 0 0 0 0.827451 0 0 0 1 0"/>
<feBlend mode="normal" in2="BackgroundImageFix" result="effect1_dropShadow_201_3"/>
<feBlend mode="normal" in="SourceGraphic" in2="effect1_dropShadow_201_3" result="shape"/>
</filter>
<linearGradient id="paint0_linear_201_3" x1="96" y1="135" x2="101" y2="-3.90694e-06" gradientUnits="userSpaceOnUse">
<stop stop-color="#C7CEDE" stop-opacity="0.7"/>
<stop offset="1" stop-color="white" stop-opacity="0.9"/>
</linearGradient>
<linearGradient id="paint1_linear_201_3" x1="154" y1="82" x2="154" y2="119" gradientUnits="userSpaceOnUse">
<stop stop-color="white" stop-opacity="0"/>
<stop offset="0.567359" stop-color="white" stop-opacity="0.567359"/>
<stop offset="1" stop-color="white"/>
</linearGradient>
<linearGradient id="paint2_linear_201_3" x1="202" y1="91" x2="202" y2="128" gradientUnits="userSpaceOnUse">
<stop stop-color="white" stop-opacity="0"/>
<stop offset="0.567359" stop-color="white" stop-opacity="0.567359"/>
<stop offset="1" stop-color="white"/>
</linearGradient>
<linearGradient id="paint3_linear_201_3" x1="179" y1="102" x2="179" y2="151" gradientUnits="userSpaceOnUse">
<stop stop-color="white" stop-opacity="0"/>
<stop offset="0.567359" stop-color="white" stop-opacity="0.567359"/>
<stop offset="1" stop-color="white"/>
</linearGradient>
</defs>
</svg>
