<svg width="280" height="177" viewBox="0 0 280 177" fill="none" xmlns="http://www.w3.org/2000/svg">
<path d="M246.279 101.261C246.279 91.3431 243.483 81.5273 238.057 72.3747C232.632 63.2229 224.684 54.9147 214.674 47.9206C204.664 40.9266 192.785 35.3816 179.716 31.5994C166.647 27.8172 152.642 25.871 138.5 25.871C124.358 25.871 110.353 27.8172 97.2839 31.5994C84.2153 35.3816 72.3362 40.9266 62.3261 47.9206C52.316 54.9147 44.3682 63.2229 38.9428 72.3747C33.5168 81.5273 30.7208 91.3432 30.7208 101.261" stroke="white" stroke-opacity="0.4" stroke-width="0.558442" stroke-dasharray="7.82 7.82"/>
<path d="M30.5386 101.261C30.5386 90.7557 33.6647 80.3743 39.7056 70.777C45.7455 61.1813 54.566 52.5807 65.596 45.5136C76.6262 38.4464 89.6307 33.0633 103.782 29.7008C117.934 26.3382 132.93 25.0683 147.818 25.9707" stroke="white" stroke-width="0.922747"/>
<g filter="url(#filter0_i_932_887)">
<circle cx="141.268" cy="25.6888" r="9.68884" fill="url(#paint0_radial_932_887)"/>
</g>
<g filter="url(#filter1_if_932_887)">
<circle cx="141.268" cy="25.6888" r="9.68884" fill="url(#paint1_radial_932_887)"/>
</g>
<path d="M5.27745 116.545C5.23957 116.093 5.05491 115.728 4.72347 115.448C4.3944 115.169 3.96826 115.029 3.44506 115.029C3.09232 115.029 2.77863 115.094 2.50401 115.224C2.22939 115.355 2.01396 115.532 1.85771 115.757C1.70146 115.982 1.62333 116.24 1.62333 116.531C1.62333 116.718 1.65884 116.888 1.72986 117.039C1.80325 117.188 1.90624 117.322 2.03881 117.44C2.17139 117.556 2.32882 117.658 2.51111 117.746C2.69341 117.833 2.89464 117.91 3.11481 117.977L3.91026 118.211C4.18252 118.294 4.43346 118.39 4.6631 118.499C4.89511 118.607 5.09634 118.738 5.2668 118.889C5.43962 119.038 5.57338 119.214 5.66807 119.415C5.76514 119.616 5.81367 119.848 5.81367 120.111C5.81367 120.494 5.71424 120.838 5.51538 121.141C5.31888 121.444 5.03834 121.683 4.67376 121.858C4.31154 122.031 3.88422 122.117 3.3918 122.117C2.92305 122.117 2.51467 122.038 2.16665 121.879C1.82101 121.721 1.54757 121.5 1.34634 121.219C1.14511 120.935 1.03147 120.608 1.00543 120.239H1.45998C1.48365 120.539 1.57953 120.8 1.74762 121.02C1.91807 121.238 2.14416 121.406 2.42589 121.524C2.70761 121.643 3.02958 121.702 3.3918 121.702C3.78242 121.702 4.12688 121.635 4.42518 121.503C4.72347 121.368 4.95666 121.181 5.12475 120.942C5.29284 120.703 5.37688 120.424 5.37688 120.107C5.37688 119.852 5.31651 119.633 5.19577 119.45C5.07503 119.268 4.89629 119.111 4.65955 118.978C4.42518 118.845 4.13398 118.727 3.78597 118.623L2.93725 118.367C2.36907 118.194 1.93465 117.959 1.63398 117.661C1.33569 117.362 1.18654 116.991 1.18654 116.545C1.18654 116.171 1.28597 115.84 1.48484 115.551C1.6837 115.26 1.95359 115.031 2.2945 114.866C2.63777 114.7 3.02485 114.617 3.45572 114.617C3.88896 114.617 4.27129 114.701 4.60273 114.869C4.93417 115.035 5.19696 115.263 5.39109 115.555C5.58521 115.844 5.69293 116.174 5.71424 116.545H5.27745ZM11.2596 120.065V116.545H11.6928V122H11.2596V121.116H11.224C11.0962 121.397 10.889 121.627 10.6026 121.805C10.3185 121.982 9.98233 122.071 9.59407 122.071C9.23659 122.071 8.92054 121.993 8.64592 121.837C8.37129 121.68 8.15586 121.459 7.99961 121.173C7.84336 120.884 7.76523 120.54 7.76523 120.143V116.545H8.19847V120.125C8.19847 120.58 8.33578 120.948 8.6104 121.229C8.88739 121.509 9.24487 121.648 9.68285 121.648C9.96694 121.648 10.2285 121.585 10.4676 121.457C10.7068 121.329 10.8985 121.147 11.0429 120.91C11.1873 120.671 11.2596 120.389 11.2596 120.065ZM14.2711 118.463V122H13.8379V116.545H14.2605V117.408H14.3031C14.4309 117.127 14.6357 116.901 14.9174 116.73C15.1992 116.56 15.5341 116.474 15.9224 116.474C16.2894 116.474 16.6113 116.553 16.8883 116.709C17.1677 116.865 17.3855 117.088 17.5417 117.376C17.7003 117.663 17.7797 118.005 17.7797 118.403V122H17.3464V118.42C17.3464 117.956 17.2079 117.584 16.9309 117.302C16.6563 117.018 16.2929 116.876 15.8407 116.876C15.5377 116.876 15.2678 116.942 15.0311 117.075C14.7943 117.207 14.6085 117.393 14.4735 117.632C14.3386 117.869 14.2711 118.146 14.2711 118.463ZM19.9301 122V116.545H20.3527V117.398H20.3917C20.5101 117.118 20.7101 116.895 20.9919 116.727C21.2736 116.556 21.5944 116.471 21.9542 116.471C21.9921 116.471 22.03 116.471 22.0679 116.471C22.1057 116.471 22.1413 116.472 22.1744 116.474V116.911C22.146 116.909 22.1117 116.905 22.0714 116.901C22.0335 116.893 21.9862 116.89 21.9294 116.89C21.6263 116.89 21.3564 116.955 21.1197 117.085C20.8853 117.215 20.7007 117.395 20.5657 117.625C20.4308 117.852 20.3633 118.113 20.3633 118.406V122H19.9301ZM23.7096 122V116.545H24.1393V122H23.7096ZM23.9262 115.58C23.8315 115.58 23.7486 115.546 23.6776 115.48C23.609 115.414 23.5746 115.333 23.5746 115.239C23.5746 115.144 23.609 115.063 23.6776 114.997C23.7463 114.931 23.8291 114.898 23.9262 114.898C24.0209 114.898 24.1026 114.931 24.1712 114.997C24.2423 115.063 24.2778 115.144 24.2778 115.239C24.2778 115.333 24.2434 115.414 24.1748 115.48C24.1061 115.546 24.0233 115.58 23.9262 115.58ZM29.7698 117.721L29.3685 117.827C29.3046 117.629 29.2135 117.457 29.0951 117.312C28.9767 117.168 28.8276 117.057 28.6477 116.979C28.4701 116.898 28.257 116.858 28.0085 116.858C27.6084 116.858 27.2805 116.957 27.0248 117.156C26.7715 117.355 26.6448 117.614 26.6448 117.934C26.6448 118.194 26.7312 118.41 26.904 118.58C27.0769 118.748 27.3408 118.876 27.696 118.964L28.534 119.173C28.9649 119.28 29.2892 119.453 29.507 119.692C29.7248 119.929 29.8337 120.223 29.8337 120.576C29.8337 120.877 29.7521 121.143 29.5887 121.375C29.4254 121.607 29.1993 121.788 28.9104 121.918C28.624 122.049 28.2902 122.114 27.909 122.114C27.4 122.114 26.9822 121.995 26.6555 121.759C26.3288 121.519 26.1192 121.177 26.0269 120.732L26.4424 120.626C26.5205 120.981 26.6827 121.252 26.9289 121.439C27.1775 121.624 27.503 121.716 27.9055 121.716C28.3505 121.716 28.7092 121.611 28.9815 121.4C29.2561 121.189 29.3934 120.919 29.3934 120.59C29.3934 120.339 29.3129 120.127 29.1519 119.955C28.9909 119.782 28.7471 119.655 28.4204 119.575L27.5504 119.362C27.1053 119.253 26.7715 119.079 26.5489 118.839C26.3264 118.598 26.2151 118.301 26.2151 117.948C26.2151 117.655 26.2921 117.397 26.446 117.174C26.5998 116.951 26.8117 116.777 27.0816 116.652C27.3515 116.527 27.6604 116.464 28.0085 116.464C28.4701 116.464 28.8465 116.573 29.1377 116.79C29.4289 117.008 29.6396 117.318 29.7698 117.721ZM33.8103 122.114C33.3179 122.114 32.8894 121.992 32.5248 121.748C32.1602 121.504 31.8785 121.17 31.6797 120.746C31.4808 120.323 31.3814 119.84 31.3814 119.298C31.3814 118.753 31.4808 118.268 31.6797 117.842C31.8809 117.415 32.1567 117.079 32.5071 116.833C32.8574 116.587 33.2575 116.464 33.7074 116.464C34.0127 116.464 34.3016 116.525 34.5738 116.648C34.8484 116.769 35.0899 116.944 35.2983 117.174C35.509 117.404 35.6735 117.681 35.7919 118.005C35.9126 118.329 35.973 118.694 35.973 119.099V119.369H31.6548V118.974H35.5397C35.5397 118.579 35.4592 118.223 35.2983 117.906C35.1373 117.588 34.9183 117.336 34.6413 117.149C34.3643 116.962 34.053 116.869 33.7074 116.869C33.3451 116.869 33.022 116.97 32.7379 117.174C32.4562 117.375 32.2324 117.647 32.0667 117.991C31.9034 118.334 31.8181 118.718 31.811 119.141V119.319C31.811 119.773 31.8904 120.182 32.049 120.544C32.21 120.904 32.4396 121.189 32.7379 121.4C33.0362 121.608 33.3937 121.712 33.8103 121.712C34.1086 121.712 34.3631 121.663 34.5738 121.563C34.7869 121.461 34.9609 121.338 35.0958 121.194C35.2308 121.049 35.3326 120.91 35.4012 120.775L35.7954 120.935C35.7126 121.117 35.5835 121.299 35.4083 121.482C35.2355 121.661 35.0154 121.812 34.7478 121.933C34.4827 122.053 34.1702 122.114 33.8103 122.114ZM42.923 122.099C42.5347 122.099 42.1879 122.018 41.8825 121.854C41.5795 121.689 41.3392 121.461 41.1616 121.173C40.9864 120.884 40.8965 120.554 40.8917 120.182H41.3285C41.338 120.622 41.4907 120.983 41.7866 121.265C42.0825 121.547 42.4613 121.688 42.923 121.688C43.2781 121.688 43.5906 121.602 43.8605 121.432C44.1327 121.259 44.3458 121.025 44.4997 120.729C44.6536 120.433 44.7293 120.099 44.727 119.727C44.727 119.334 44.6441 118.991 44.4784 118.697C44.3127 118.404 44.0913 118.177 43.8143 118.016C43.5373 117.855 43.2307 117.773 42.8946 117.771C42.6294 117.771 42.3808 117.819 42.1488 117.916C41.9168 118.011 41.7191 118.133 41.5558 118.282L41.0551 118.211L41.4848 114.727H44.8939V115.139H41.8647L41.5309 117.863H41.5664C41.7369 117.711 41.9393 117.589 42.1737 117.497C42.4104 117.402 42.6673 117.355 42.9443 117.355C43.3515 117.355 43.7232 117.455 44.0593 117.653C44.3979 117.852 44.6666 118.129 44.8654 118.484C45.0667 118.839 45.1661 119.253 45.1637 119.724C45.1614 120.178 45.0643 120.584 44.8725 120.942C44.6808 121.299 44.4156 121.582 44.0771 121.79C43.7409 121.996 43.3562 122.099 42.923 122.099ZM47.5619 120.746C47.4553 120.746 47.3642 120.71 47.2884 120.636C47.215 120.561 47.1783 120.469 47.1783 120.363C47.1783 120.259 47.215 120.169 47.2884 120.093C47.3642 120.017 47.4553 119.979 47.5619 119.979C47.666 119.979 47.756 120.017 47.8317 120.093C47.9075 120.169 47.9454 120.259 47.9454 120.363C47.9454 120.434 47.9276 120.499 47.8921 120.558C47.859 120.615 47.8128 120.661 47.7536 120.697C47.6968 120.73 47.6329 120.746 47.5619 120.746ZM47.5619 117.05C47.4553 117.05 47.3642 117.012 47.2884 116.936C47.215 116.86 47.1783 116.77 47.1783 116.666C47.1783 116.562 47.215 116.472 47.2884 116.396C47.3642 116.321 47.4553 116.283 47.5619 116.283C47.666 116.283 47.756 116.321 47.8317 116.396C47.9075 116.472 47.9454 116.562 47.9454 116.666C47.9454 116.737 47.9276 116.802 47.8921 116.862C47.859 116.918 47.8128 116.964 47.7536 117C47.6968 117.033 47.6329 117.05 47.5619 117.05ZM52.2274 122.099C51.7421 122.099 51.3254 121.95 50.9774 121.652C50.6294 121.354 50.3618 120.926 50.1748 120.37C49.9902 119.811 49.8978 119.143 49.8978 118.364C49.8978 117.587 49.9913 116.92 50.1784 116.361C50.3654 115.802 50.6317 115.374 50.9774 115.075C51.3254 114.777 51.7421 114.628 52.2274 114.628C52.7127 114.628 53.1282 114.777 53.4738 115.075C53.8218 115.374 54.0894 115.802 54.2764 116.361C54.4634 116.92 54.5569 117.587 54.5569 118.364C54.5569 119.143 54.4634 119.811 54.2764 120.37C54.0917 120.926 53.8254 121.354 53.4774 121.652C53.1294 121.95 52.7127 122.099 52.2274 122.099ZM52.2274 121.688C52.8169 121.688 53.2797 121.395 53.6159 120.81C53.952 120.223 54.1201 119.408 54.1201 118.364C54.1201 117.668 54.0432 117.071 53.8893 116.574C53.7378 116.077 53.5212 115.697 53.2395 115.434C52.9577 115.169 52.6204 115.036 52.2274 115.036C51.6379 115.036 51.1751 115.33 50.8389 115.917C50.5027 116.504 50.3346 117.32 50.3346 118.364C50.3346 119.06 50.4104 119.656 50.5619 120.153C50.7134 120.648 50.93 121.028 51.2118 121.293C51.4958 121.556 51.8344 121.688 52.2274 121.688ZM56.4579 122V121.663L58.8123 118.95C59.1485 118.561 59.4148 118.232 59.6113 117.962C59.8078 117.692 59.9486 117.449 60.0339 117.231C60.1191 117.013 60.1617 116.786 60.1617 116.549C60.1617 116.253 60.0919 115.991 59.9522 115.764C59.8149 115.535 59.6267 115.356 59.3876 115.228C59.1508 115.1 58.8809 115.036 58.5779 115.036C58.2607 115.036 57.9825 115.106 57.7434 115.246C57.5043 115.385 57.3173 115.575 57.1823 115.814C57.0497 116.053 56.9834 116.322 56.9834 116.62H56.5538C56.5538 116.244 56.6414 115.905 56.8165 115.604C56.9917 115.304 57.232 115.066 57.5374 114.891C57.8452 114.715 58.1956 114.628 58.5886 114.628C58.9745 114.628 59.3177 114.712 59.6184 114.88C59.9191 115.048 60.1558 115.278 60.3286 115.569C60.5014 115.858 60.5879 116.184 60.5879 116.549C60.5879 116.817 60.5417 117.075 60.4494 117.323C60.3594 117.569 60.2043 117.845 59.9842 118.151C59.764 118.454 59.4598 118.828 59.0715 119.273L57.0971 121.549V121.588H60.9146V122H56.4579ZM66.0269 122H65.5581L68.1824 114.727H68.6938L71.318 122H70.8493L68.4558 115.299H68.4203L66.0269 122ZM66.6909 119.262H70.1852V119.674H66.6909V119.262ZM73.0246 114.727H73.5075L76.3094 121.361H76.3591L79.1609 114.727H79.6439V122H79.2178V115.782H79.1751L76.5437 122H76.1247L73.4933 115.782H73.4507V122H73.0246V114.727Z" fill="white"/>
<path d="M206.992 116.545C206.955 116.093 206.77 115.728 206.439 115.448C206.109 115.169 205.683 115.029 205.16 115.029C204.807 115.029 204.494 115.094 204.219 115.224C203.944 115.355 203.729 115.532 203.573 115.757C203.416 115.982 203.338 116.24 203.338 116.531C203.338 116.718 203.374 116.888 203.445 117.039C203.518 117.188 203.621 117.322 203.754 117.44C203.886 117.556 204.044 117.658 204.226 117.746C204.408 117.833 204.61 117.91 204.83 117.977L205.625 118.211C205.898 118.294 206.149 118.39 206.378 118.499C206.61 118.607 206.811 118.738 206.982 118.889C207.155 119.038 207.288 119.214 207.383 119.415C207.48 119.616 207.529 119.848 207.529 120.111C207.529 120.494 207.429 120.838 207.23 121.141C207.034 121.444 206.753 121.683 206.389 121.858C206.027 122.031 205.599 122.117 205.107 122.117C204.638 122.117 204.23 122.038 203.882 121.879C203.536 121.721 203.263 121.5 203.061 121.219C202.86 120.935 202.747 120.608 202.72 120.239H203.175C203.199 120.539 203.295 120.8 203.463 121.02C203.633 121.238 203.859 121.406 204.141 121.524C204.423 121.643 204.745 121.702 205.107 121.702C205.497 121.702 205.842 121.635 206.14 121.503C206.439 121.368 206.672 121.181 206.84 120.942C207.008 120.703 207.092 120.424 207.092 120.107C207.092 119.852 207.032 119.633 206.911 119.45C206.79 119.268 206.611 119.111 206.375 118.978C206.14 118.845 205.849 118.727 205.501 118.623L204.652 118.367C204.084 118.194 203.65 117.959 203.349 117.661C203.051 117.362 202.902 116.991 202.902 116.545C202.902 116.171 203.001 115.84 203.2 115.551C203.399 115.26 203.669 115.031 204.01 114.866C204.353 114.7 204.74 114.617 205.171 114.617C205.604 114.617 205.986 114.701 206.318 114.869C206.649 115.035 206.912 115.263 207.106 115.555C207.3 115.844 207.408 116.174 207.429 116.545H206.992ZM212.975 120.065V116.545H213.408V122H212.975V121.116H212.939C212.811 121.397 212.604 121.627 212.318 121.805C212.034 121.982 211.697 122.071 211.309 122.071C210.952 122.071 210.636 121.993 210.361 121.837C210.086 121.68 209.871 121.459 209.715 121.173C209.558 120.884 209.48 120.54 209.48 120.143V116.545H209.914V120.125C209.914 120.58 210.051 120.948 210.325 121.229C210.602 121.509 210.96 121.648 211.398 121.648C211.682 121.648 211.944 121.585 212.183 121.457C212.422 121.329 212.614 121.147 212.758 120.91C212.902 120.671 212.975 120.389 212.975 120.065ZM215.986 118.463V122H215.553V116.545H215.976V117.408H216.018C216.146 117.127 216.351 116.901 216.632 116.73C216.914 116.56 217.249 116.474 217.637 116.474C218.004 116.474 218.326 116.553 218.603 116.709C218.883 116.865 219.101 117.088 219.257 117.376C219.415 117.663 219.495 118.005 219.495 118.403V122H219.061V118.42C219.061 117.956 218.923 117.584 218.646 117.302C218.371 117.018 218.008 116.876 217.556 116.876C217.253 116.876 216.983 116.942 216.746 117.075C216.509 117.207 216.324 117.393 216.189 117.632C216.054 117.869 215.986 118.146 215.986 118.463ZM225.111 117.721L224.71 117.827C224.646 117.629 224.555 117.457 224.436 117.312C224.318 117.168 224.169 117.057 223.989 116.979C223.811 116.898 223.598 116.858 223.35 116.858C222.95 116.858 222.622 116.957 222.366 117.156C222.113 117.355 221.986 117.614 221.986 117.934C221.986 118.194 222.072 118.41 222.245 118.58C222.418 118.748 222.682 118.876 223.037 118.964L223.875 119.173C224.306 119.28 224.63 119.453 224.848 119.692C225.066 119.929 225.175 120.223 225.175 120.576C225.175 120.877 225.093 121.143 224.93 121.375C224.767 121.607 224.54 121.788 224.252 121.918C223.965 122.049 223.631 122.114 223.25 122.114C222.741 122.114 222.323 121.995 221.997 121.759C221.67 121.519 221.46 121.177 221.368 120.732L221.784 120.626C221.862 120.981 222.024 121.252 222.27 121.439C222.519 121.624 222.844 121.716 223.247 121.716C223.692 121.716 224.05 121.611 224.323 121.4C224.597 121.189 224.735 120.919 224.735 120.59C224.735 120.339 224.654 120.127 224.493 119.955C224.332 119.782 224.088 119.655 223.762 119.575L222.892 119.362C222.446 119.253 222.113 119.079 221.89 118.839C221.668 118.598 221.556 118.301 221.556 117.948C221.556 117.655 221.633 117.397 221.787 117.174C221.941 116.951 222.153 116.777 222.423 116.652C222.693 116.527 223.002 116.464 223.35 116.464C223.811 116.464 224.188 116.573 224.479 116.79C224.77 117.008 224.981 117.318 225.111 117.721ZM229.152 122.114C228.659 122.114 228.231 121.992 227.866 121.748C227.501 121.504 227.22 121.17 227.021 120.746C226.822 120.323 226.723 119.84 226.723 119.298C226.723 118.753 226.822 118.268 227.021 117.842C227.222 117.415 227.498 117.079 227.848 116.833C228.199 116.587 228.599 116.464 229.049 116.464C229.354 116.464 229.643 116.525 229.915 116.648C230.19 116.769 230.431 116.944 230.639 117.174C230.85 117.404 231.015 117.681 231.133 118.005C231.254 118.329 231.314 118.694 231.314 119.099V119.369H226.996V118.974H230.881C230.881 118.579 230.8 118.223 230.639 117.906C230.478 117.588 230.259 117.336 229.983 117.149C229.706 116.962 229.394 116.869 229.049 116.869C228.686 116.869 228.363 116.97 228.079 117.174C227.797 117.375 227.574 117.647 227.408 117.991C227.245 118.334 227.159 118.718 227.152 119.141V119.319C227.152 119.773 227.232 120.182 227.39 120.544C227.551 120.904 227.781 121.189 228.079 121.4C228.377 121.608 228.735 121.712 229.152 121.712C229.45 121.712 229.704 121.663 229.915 121.563C230.128 121.461 230.302 121.338 230.437 121.194C230.572 121.049 230.674 120.91 230.742 120.775L231.137 120.935C231.054 121.117 230.925 121.299 230.75 121.482C230.577 121.661 230.357 121.812 230.089 121.933C229.824 122.053 229.511 122.114 229.152 122.114ZM235.084 116.545V116.933H232.701V116.545H235.084ZM233.507 115.239H233.937V120.711C233.937 120.933 233.98 121.116 234.065 121.258C234.152 121.397 234.266 121.502 234.406 121.57C234.548 121.637 234.699 121.67 234.86 121.67C234.938 121.67 235.006 121.664 235.063 121.652C235.122 121.64 235.177 121.625 235.23 121.606L235.336 122C235.27 122.024 235.196 122.044 235.116 122.06C235.035 122.079 234.941 122.089 234.832 122.089C234.605 122.089 234.389 122.038 234.185 121.936C233.984 121.834 233.821 121.686 233.695 121.492C233.57 121.298 233.507 121.064 233.507 120.789V115.239ZM242.149 122.099C241.761 122.099 241.414 122.018 241.109 121.854C240.806 121.689 240.566 121.461 240.388 121.173C240.213 120.884 240.123 120.554 240.118 120.182H240.555C240.564 120.622 240.717 120.983 241.013 121.265C241.309 121.547 241.688 121.688 242.149 121.688C242.504 121.688 242.817 121.602 243.087 121.432C243.359 121.259 243.572 121.025 243.726 120.729C243.88 120.433 243.956 120.099 243.953 119.727C243.953 119.334 243.87 118.991 243.705 118.697C243.539 118.404 243.318 118.177 243.041 118.016C242.764 117.855 242.457 117.773 242.121 117.771C241.856 117.771 241.607 117.819 241.375 117.916C241.143 118.011 240.946 118.133 240.782 118.282L240.281 118.211L240.711 114.727H244.12V115.139H241.091L240.757 117.863H240.793C240.963 117.711 241.166 117.589 241.4 117.497C241.637 117.402 241.894 117.355 242.171 117.355C242.578 117.355 242.95 117.455 243.286 117.653C243.624 117.852 243.893 118.129 244.092 118.484C244.293 118.839 244.392 119.253 244.39 119.724C244.388 120.178 244.291 120.584 244.099 120.942C243.907 121.299 243.642 121.582 243.303 121.79C242.967 121.996 242.583 122.099 242.149 122.099ZM246.788 120.746C246.682 120.746 246.591 120.71 246.515 120.636C246.441 120.561 246.405 120.469 246.405 120.363C246.405 120.259 246.441 120.169 246.515 120.093C246.591 120.017 246.682 119.979 246.788 119.979C246.892 119.979 246.982 120.017 247.058 120.093C247.134 120.169 247.172 120.259 247.172 120.363C247.172 120.434 247.154 120.499 247.118 120.558C247.085 120.615 247.039 120.661 246.98 120.697C246.923 120.73 246.859 120.746 246.788 120.746ZM246.788 117.05C246.682 117.05 246.591 117.012 246.515 116.936C246.441 116.86 246.405 116.77 246.405 116.666C246.405 116.562 246.441 116.472 246.515 116.396C246.591 116.321 246.682 116.283 246.788 116.283C246.892 116.283 246.982 116.321 247.058 116.396C247.134 116.472 247.172 116.562 247.172 116.666C247.172 116.737 247.154 116.802 247.118 116.862C247.085 116.918 247.039 116.964 246.98 117C246.923 117.033 246.859 117.05 246.788 117.05ZM251.578 122.099C251.147 122.099 250.762 122.018 250.424 121.854C250.085 121.689 249.817 121.463 249.618 121.176C249.421 120.887 249.32 120.556 249.312 120.182H249.763C249.771 120.478 249.855 120.739 250.016 120.967C250.177 121.192 250.392 121.368 250.662 121.496C250.934 121.624 251.237 121.688 251.571 121.688C251.933 121.688 252.25 121.616 252.523 121.474C252.797 121.332 253.012 121.141 253.165 120.899C253.319 120.655 253.396 120.383 253.396 120.082C253.396 119.76 253.312 119.479 253.144 119.237C252.976 118.993 252.742 118.804 252.441 118.669C252.14 118.532 251.791 118.463 251.393 118.463H251.123V118.051H251.393C251.732 118.051 252.035 117.99 252.302 117.866C252.57 117.741 252.781 117.565 252.935 117.337C253.091 117.11 253.169 116.841 253.169 116.531C253.169 116.24 253.101 115.982 252.967 115.757C252.832 115.532 252.645 115.356 252.405 115.228C252.169 115.1 251.891 115.036 251.571 115.036C251.263 115.036 250.984 115.099 250.733 115.224C250.484 115.35 250.287 115.526 250.14 115.754C249.993 115.981 249.918 116.245 249.916 116.545H249.479C249.484 116.169 249.579 115.836 249.763 115.548C249.95 115.259 250.2 115.034 250.513 114.873C250.828 114.71 251.183 114.628 251.578 114.628C251.98 114.628 252.333 114.712 252.636 114.88C252.942 115.048 253.178 115.275 253.347 115.562C253.517 115.848 253.602 116.167 253.602 116.517C253.602 116.938 253.485 117.299 253.251 117.6C253.019 117.898 252.704 118.106 252.306 118.222V118.261C252.777 118.365 253.15 118.579 253.425 118.903C253.699 119.228 253.837 119.621 253.837 120.082C253.837 120.461 253.739 120.803 253.545 121.109C253.351 121.414 253.084 121.656 252.743 121.833C252.404 122.011 252.016 122.099 251.578 122.099ZM258.015 122.099C257.529 122.099 257.113 121.95 256.765 121.652C256.417 121.354 256.149 120.926 255.962 120.37C255.777 119.811 255.685 119.143 255.685 118.364C255.685 117.587 255.779 116.92 255.966 116.361C256.153 115.802 256.419 115.374 256.765 115.075C257.113 114.777 257.529 114.628 258.015 114.628C258.5 114.628 258.915 114.777 259.261 115.075C259.609 115.374 259.877 115.802 260.064 116.361C260.251 116.92 260.344 117.587 260.344 118.364C260.344 119.143 260.251 119.811 260.064 120.37C259.879 120.926 259.613 121.354 259.265 121.652C258.917 121.95 258.5 122.099 258.015 122.099ZM258.015 121.688C258.604 121.688 259.067 121.395 259.403 120.81C259.739 120.223 259.907 119.408 259.907 118.364C259.907 117.668 259.83 117.071 259.677 116.574C259.525 116.077 259.308 115.697 259.027 115.434C258.745 115.169 258.408 115.036 258.015 115.036C257.425 115.036 256.962 115.33 256.626 115.917C256.29 116.504 256.122 117.32 256.122 118.364C256.122 119.06 256.198 119.656 256.349 120.153C256.501 120.648 256.717 121.028 256.999 121.293C257.283 121.556 257.622 121.688 258.015 121.688ZM265.312 122H264.843L267.467 114.727H267.979L270.603 122H270.134L267.741 115.299H267.705L265.312 122ZM265.976 119.262H269.47V119.674H265.976V119.262ZM272.31 114.727H272.792L275.594 121.361H275.644L278.446 114.727H278.929V122H278.503V115.782H278.46L275.829 122H275.41L272.778 115.782H272.736V122H272.31V114.727Z" fill="white"/>
<defs>
<filter id="filter0_i_932_887" x="131.579" y="16" width="19.3777" height="20.1528" filterUnits="userSpaceOnUse" color-interpolation-filters="sRGB">
<feFlood flood-opacity="0" result="BackgroundImageFix"/>
<feBlend mode="normal" in="SourceGraphic" in2="BackgroundImageFix" result="shape"/>
<feColorMatrix in="SourceAlpha" type="matrix" values="0 0 0 0 0 0 0 0 0 0 0 0 0 0 0 0 0 0 127 0" result="hardAlpha"/>
<feOffset dy="0.775107"/>
<feGaussianBlur stdDeviation="1.55021"/>
<feComposite in2="hardAlpha" operator="arithmetic" k2="-1" k3="1"/>
<feColorMatrix type="matrix" values="0 0 0 0 1 0 0 0 0 1 0 0 0 0 1 0 0 0 1 0"/>
<feBlend mode="overlay" in2="shape" result="effect1_innerShadow_932_887"/>
</filter>
<filter id="filter1_if_932_887" x="115.763" y="0.184121" width="51.0094" height="51.0094" filterUnits="userSpaceOnUse" color-interpolation-filters="sRGB">
<feFlood flood-opacity="0" result="BackgroundImageFix"/>
<feBlend mode="normal" in="SourceGraphic" in2="BackgroundImageFix" result="shape"/>
<feColorMatrix in="SourceAlpha" type="matrix" values="0 0 0 0 0 0 0 0 0 0 0 0 0 0 0 0 0 0 127 0" result="hardAlpha"/>
<feOffset dy="0.775107"/>
<feGaussianBlur stdDeviation="11.7004"/>
<feComposite in2="hardAlpha" operator="arithmetic" k2="-1" k3="1"/>
<feColorMatrix type="matrix" values="0 0 0 0 1 0 0 0 0 1 0 0 0 0 1 0 0 0 1 0"/>
<feBlend mode="overlay" in2="shape" result="effect1_innerShadow_932_887"/>
<feGaussianBlur stdDeviation="7.90794" result="effect2_foregroundBlur_932_887"/>
</filter>
<radialGradient id="paint0_radial_932_887" cx="0" cy="0" r="1" gradientUnits="userSpaceOnUse" gradientTransform="translate(136.618 31.8897) rotate(-49.5538) scale(15.5324)">
<stop stop-color="#E07512"/>
<stop offset="1" stop-color="#F5C208"/>
</radialGradient>
<radialGradient id="paint1_radial_932_887" cx="0" cy="0" r="1" gradientUnits="userSpaceOnUse" gradientTransform="translate(136.618 31.8897) rotate(-49.5538) scale(15.5324)">
<stop stop-color="#E07512"/>
<stop offset="1" stop-color="#F5C208"/>
</radialGradient>
</defs>
</svg>
